<svg width="100" height="18" viewBox="0 0 100 18" fill="none" xmlns="http://www.w3.org/2000/svg">
<path d="M4.72001 17.38V16.22C4.72001 15.68 4.72001 15.52 4.72001 15.46H1.2219e-05V11.46H10.98C13.6 11.46 15.22 11.34 17 10.5L16.2 14.3C15.68 14.64 14.94 14.9 14.16 15.1C13.34 15.3 12.48 15.42 11.74 15.46C11.72 15.46 11.72 15.46 11.72 15.48V16.42C11.72 16.74 11.72 17.04 11.72 17.38H4.72001ZM1.2219e-05 5.68C1.2219e-05 5.32 0.0600122 4.9 0.160012 4.54C0.520012 3.18 1.50001 2.04 3.18001 1.3C4.52001 0.700003 6.24001 0.400003 8.16001 0.400003H8.18001C9.44001 0.400003 10.62 0.560002 11.54 0.820002L8.86001 4.34L8.98001 4.36C10.38 3.52 12.18 2.4 13.6 1.58C15.34 2.5 16.36 3.92 16.36 5.68C16.36 7.4 15.46 8.76 13.86 9.7C12.44 10.54 10.5 10.98 8.18001 10.98C5.72001 10.98 3.72001 10.5 2.26001 9.6C0.820012 8.7 1.2219e-05 7.34 1.2219e-05 5.68ZM6.84001 6.02C6.84001 6.5 6.96001 6.86 7.18001 7.1C7.44001 7.4 7.84001 7.56 8.36001 7.56C8.90001 7.56 9.30001 7.4 9.56001 7.06C9.78001 6.8 9.88001 6.48 9.88001 6.02C9.88001 5.14 9.46001 4.64 8.72001 4.52C8.66001 4.5 8.54001 4.5 8.50001 4.5H8.38001C7.42001 4.5 6.84001 5 6.84001 6.02ZM17 17.48V10.5C17 10.46 17 10.44 17 10.4V4.14C17 2.86 17 1.56 17 0.280002H24.1V9.66C24.1 12.26 24.1 14.88 24.1 17.48H17ZM41.4 17.48V12.54C41.4 9.9 41.4 7.24 41.4 4.58V0.280002H48.8V6.86C48.8 10.4 48.8 13.94 48.8 17.48H41.4ZM25.18 16.58C25.68 13.88 26.2 11.16 26.7 8.44C27.2 5.84 27.68 3.2 28.18 0.580003H36.08C35.58 1.46 35.06 2.36 34.56 3.26C34.16 3.96 33.8 4.64 33.4 5.34H39.08L40.04 10.46C40.42 12.5 40.8 14.54 41.18 16.58H34.18C34.1 15.62 34.04 14.64 33.96 13.68C33.88 12.5 33.78 11.34 33.7 10.14C33.6 9.04 33.52 7.92 33.44 6.8C33.44 6.78 33.44 6.78 33.42 6.78H33.38C33.36 6.78 33.36 6.78 33.36 6.8L32.94 12.2C32.82 13.66 32.7 15.12 32.58 16.58H25.18ZM50.78 10.86V5.88C50.78 4.22 50.78 2.54 50.78 0.880003H58.38V5.38C58.38 5.52 58.38 5.64 58.38 5.78V7.5C60.94 7.5 63.44 7.5 66 7.5C66.02 7.5 66.02 7.5 66.02 7.48V6.22C66.02 5.7 64.42 5.42 63.16 5.42C61.58 5.42 59.72 5.58 58.4 5.8L58.38 5.78C58.66 4.4 58.74 4.22 59.06 2.62L59.42 0.880003C61.48 0.640002 64.3 0.500003 66.98 0.560002C70.8 0.640002 73.62 1.4 73.62 3.5V7.22C73.62 8.42 73.62 9.66 73.62 10.86H50.78ZM50 16.78V12.28H53.5C54.6 12.28 55.68 12.28 57.58 12.28H57.6C57.6 11.96 57.6 11.6 57.6 11.28H66.8V12.28C66.8 12.28 66.8 12.28 66.82 12.28H70.86C72.04 12.28 73.22 12.28 74.4 12.28V16.78H50ZM82.78 17.08C80.38 17.08 78.4 16.2 77 14.7C75.6 13.2 74.8 11.04 74.8 8.54C74.8 7.96 74.84 7.38 74.92 6.86C75.28 4.6 76.34 2.76 77.94 1.54C79.24 0.560002 80.88 2.14577e-06 82.76 2.14577e-06H82.78C84 2.14577e-06 85.12 0.220003 86.12 0.660003L83.28 5.94C83.24 5.92 83.1 5.9 83.06 5.9H83C82.18 5.9 81.7 6.82 81.7 8.74C81.7 9.6 81.8 10.26 81.98 10.74C82.2 11.3 82.54 11.58 82.98 11.58C83.44 11.58 83.78 11.28 84 10.66C84.18 10.2 84.26 9.56 84.26 8.74C84.26 7.08 83.9 6.16 83.28 5.94L88.06 1.88C89.76 3.4 90.76 5.74 90.76 8.54C90.76 11.18 89.88 13.42 88.32 14.94C86.94 16.28 85.04 17.08 82.78 17.08ZM91.1 17.48V12.58C91.1 11.44 91.1 10.3 91.1 9.14V0.280002H98.1V5.12H99.5V12.12H98.1V17.48H91.1Z" fill="#7E36F9"/>
</svg>
